<svg width="499" height="242" viewBox="0 0 499 242" fill="none" xmlns="http://www.w3.org/2000/svg">
<g clip-path="url(#clip0_162_109)">
<path d="M235.034 220.543V224.456H216.416V190.368H220.779V220.543H235.034ZM262.851 219.329V224.456H240.995V190.368H262.626V195.495H247.246V204.759H260.378V209.885H247.246V219.329H262.851ZM289.099 214.517H274.888L271.246 224.456H266.749L279.565 189.963H284.422L297.284 224.456H292.787L289.099 214.517ZM287.615 210.605L281.994 195.405L276.373 210.605H287.615ZM314.122 211.1H308.906V224.456H302.655V190.368H315.561C323.596 190.368 327.613 193.831 327.613 200.756C327.613 203.335 327.014 205.448 325.815 207.097C324.615 208.746 322.832 209.885 320.463 210.515L329.097 224.456H322.127L314.122 211.1ZM308.906 205.748H315.561C319.369 205.748 321.273 204.039 321.273 200.621C321.273 198.912 320.793 197.668 319.833 196.889C318.904 196.109 317.48 195.719 315.561 195.719H308.906V205.748ZM361.73 190.368V224.456H356.963L340.189 197.698V224.456H335.827V190.368H340.549L357.368 217.126V190.368H361.73ZM370.726 190.368H376.977V224.456H370.726V190.368ZM411.883 190.368V224.456H407.116L390.342 197.698V224.456H385.98V190.368H390.702L407.521 217.126V190.368H411.883ZM447.817 203.634V222.072C445.988 223.092 444.024 223.871 441.925 224.411C439.857 224.951 437.908 225.22 436.079 225.22C432.332 225.22 429.154 224.486 426.545 223.017C423.967 221.518 422.018 219.434 420.699 216.766C419.41 214.098 418.765 210.995 418.765 207.457C418.765 204.099 419.38 201.086 420.609 198.418C421.868 195.749 423.787 193.636 426.365 192.077C428.974 190.518 432.212 189.738 436.079 189.738C438.058 189.738 439.722 189.933 441.071 190.323C442.45 190.683 443.994 191.237 445.703 191.987V197.653C444.174 196.814 442.66 196.184 441.161 195.764C439.692 195.315 437.998 195.09 436.079 195.09C433.801 195.09 431.822 195.615 430.143 196.664C428.494 197.713 427.235 199.167 426.365 201.026C425.496 202.855 425.061 204.954 425.061 207.322C425.061 211.13 426.021 214.173 427.939 216.451C429.888 218.73 432.601 219.869 436.079 219.869C437.938 219.869 439.812 219.494 441.701 218.745V209.076H431.087V203.634H447.817Z" fill="#FBFFFF"/>
<path d="M394.554 98.3721C402.299 98.3721 408.032 100.422 411.753 104.523C415.549 108.623 417.448 115.381 417.448 124.796V162.724H406.741V124.796C406.741 118.874 405.716 114.659 403.666 112.154C401.692 109.648 398.161 108.395 393.074 108.395C387.151 108.395 381.228 110.977 375.306 116.14V162.724H364.599V99.7389H375.306V106.459C381.532 101.068 387.948 98.3721 394.554 98.3721ZM444.632 132.086C444.784 139.071 446.53 144.652 449.871 148.829C453.212 153.005 458.527 155.093 465.817 155.093C471.36 155.093 477.434 153.536 484.04 150.423L487.343 159.307C480.433 162.876 472.954 164.66 464.905 164.66C458.223 164.66 452.529 163.256 447.821 160.446C443.113 157.637 439.544 153.726 437.115 148.715C434.685 143.703 433.47 137.856 433.47 131.175C433.47 124.113 434.723 118.114 437.228 113.179C439.81 108.167 443.265 104.371 447.593 101.789C451.921 99.2074 456.781 97.9165 462.172 97.9165C470.448 97.9165 476.941 100.498 481.648 105.662C486.356 110.825 488.71 118.228 488.71 127.871V132.086H444.632ZM462.172 107.484C452.756 107.484 447.137 112.685 445.315 123.088H477.434C477.054 117.773 475.612 113.862 473.106 111.356C470.6 108.775 466.956 107.484 462.172 107.484Z" fill="white"/>
<path d="M121.807 135.376C121.959 142.362 123.705 147.943 127.046 152.119C130.387 156.295 135.702 158.383 142.992 158.383C148.535 158.383 154.609 156.827 161.215 153.714L164.518 162.598C157.608 166.166 150.129 167.951 142.08 167.951C135.399 167.951 129.704 166.546 124.996 163.737C120.288 160.927 116.719 157.017 114.29 152.005C111.86 146.994 110.645 141.147 110.645 134.465C110.645 127.403 111.898 121.405 114.403 116.469C116.985 111.458 120.44 107.661 124.768 105.08C129.096 102.498 133.956 101.207 139.347 101.207C147.623 101.207 154.116 103.789 158.823 108.952C163.531 114.115 165.885 121.519 165.885 131.162V135.376H121.807ZM139.347 110.774C129.931 110.774 124.313 115.976 122.49 126.378H154.609C154.23 121.063 152.787 117.153 150.281 114.647C147.775 112.065 144.131 110.774 139.347 110.774ZM213.49 101.663V111.686H210.87C204.34 111.686 198 114.305 191.849 119.545V166.015H181.143V103.029H191.849V110.091C198.075 104.472 204.416 101.663 210.87 101.663H213.49Z" fill="white"/>
<path d="M260.653 99.3869L253.078 145.583C246.545 134.245 244.02 117.745 244.02 99.3869C244.02 81.0284 246.545 64.5285 253.078 53.1908L260.653 99.3869Z" fill="white" fill-opacity="0.67"/>
<path d="M311.415 99.3869L318.99 145.583C325.523 134.245 328.049 117.745 328.049 99.3869C328.049 81.0284 325.523 64.5285 318.99 53.1908L311.415 99.3869Z" fill="white" fill-opacity="0.67"/>
<path d="M285.572 30.4616C328.313 30.4616 343.131 61.3395 343.131 99.3854C343.131 137.431 328.313 168.309 285.572 168.309C242.832 168.309 229.007 137.431 229.007 99.3854C229.007 61.3395 242.832 30.4616 285.572 30.4616ZM327.911 99.3854C327.911 71.9119 322.254 48.6008 305.976 40.5238C300.651 42.512 295.719 45.7825 291.375 50.0733V148.697C295.719 152.988 300.651 156.259 305.976 158.247C322.254 150.17 327.911 126.859 327.911 99.3854ZM266.213 158.247C271.538 156.259 276.47 152.988 280.814 148.697V50.0733C276.47 45.7825 271.538 42.512 266.213 40.5238C249.935 48.6008 244.278 71.9119 244.278 99.3854C244.278 126.859 249.935 150.17 266.213 158.247V158.247Z" fill="white"/>
<path d="M354.414 62.1907L341.472 78.8868C341.472 78.8865 341.472 78.8861 341.472 78.8857L354.414 62.19L354.414 62.1907ZM230.591 78.789L217.725 62.1907L217.725 62.19L230.591 78.7878C230.591 78.7882 230.591 78.7886 230.591 78.789ZM320.242 106.276H291.376V106.274H320.242L327.888 96.4105C327.888 96.4109 327.888 96.4114 327.888 96.4118L327.888 96.4118V96.4118L320.242 106.276ZM327.888 96.4118L341.472 78.8868C342.608 85.3769 343.132 92.2781 343.132 99.4328C343.132 137.479 328.313 168.357 285.573 168.357C242.832 168.357 229.007 137.479 229.007 99.4328L229.007 99.4328C229.007 92.2421 229.501 85.3075 230.591 78.789L244.301 96.4763C244.286 97.456 244.279 98.4417 244.279 99.4328C244.279 126.906 249.935 150.217 266.214 158.294C271.538 156.306 276.47 153.036 280.814 148.745V106.276H291.376V148.745C295.72 153.036 300.652 156.306 305.976 158.294C322.255 150.217 327.911 126.906 327.911 99.4328C327.911 98.4199 327.904 97.4128 327.888 96.4118L327.888 96.4118V96.4118V96.4118ZM251.897 106.276L244.301 96.4763C244.301 96.4759 244.301 96.4754 244.301 96.4749L251.897 106.274H280.814V106.276H251.897Z" fill="#443370" fill-opacity="0.06"/>
<path d="M107.035 155.84V170.269H13.333V156.172L81.8266 58.9874H15.4889V44.5589H101.562V58.6557L33.0684 155.84H107.035Z" fill="white"/>
</g>
<defs>
<clipPath id="clip0_162_109">
<rect width="499" height="242" fill="white"/>
</clipPath>
</defs>
</svg>
